PathFileType	4	(X/Y/Z)	Run_300 01
DataRate	CameraRate	NumFrames	NumMarkers	Units	OrigDataRate	OrigDataStartFrame	OrigNumFrames
120	120	4	42	mm	120	112	128
Frame#	Time	LASI			RASI			LPSI			RPSI			RTH1			RTH3			LTH1			LTH2			LTH3			RTB1			RTB2			RTB3			LTB1			LTB2			LTB3			RCAL			RTOE			RMT5			LCAL			LTOE			LMT5			LACR			RACR			CLAV			C7			RUA1			RUA2			RUA3			RLEL			RMEL			LUA1			LUA2			LUA3			LLEL			LMEL			RFAsuperior			RFAradius			RFAulna			LFAsuperior			LFAradius			LFAulna			RTH2			
		X1	Y1	Z1	X2	Y2	Z2	X3	Y3	Z3	X4	Y4	Z4	X5	Y5	Z5	X6	Y6	Z6	X7	Y7	Z7	X8	Y8	Z8	X9	Y9	Z9	X10	Y10	Z10	X11	Y11	Z11	X12	Y12	Z12	X13	Y13	Z13	X14	Y14	Z14	X15	Y15	Z15	X16	Y16	Z16	X17	Y17	Z17	X18	Y18	Z18	X19	Y19	Z19	X20	Y20	Z20	X21	Y21	Z21	X22	Y22	Z22	X23	Y23	Z23	X24	Y24	Z24	X25	Y25	Z25	X26	Y26	Z26	X27	Y27	Z27	X28	Y28	Z28	X29	Y29	Z29	X30	Y30	Z30	X31	Y31	Z31	X32	Y32	Z32	X33	Y33	Z33	X34	Y34	Z34	X35	Y35	Z35	X36	Y36	Z36	X37	Y37	Z37	X38	Y38	Z38	X39	Y39	Z39	X40	Y40	Z40	X41	Y41	Z41	X42	Y42	Z42	

98	0.958333	1099.271011	967.4533740000001	-437.04326	1076.442781	980.398286	-202.627965	926.505789	1002.118932	-392.579594	914.292144	1005.921071	-291.053922	1046.963757	818.849229	-155.524759	1125.798233	593.917943	-209.891386	1047.84039	787.712082	-497.927718	1120.749361	692.8815520000001	-476.988743	1056.033306	568.6495629999999	-459.381117	1186.792646	374.254154	-285.892838	1123.97016	328.715161	-226.832099	1115.087206	207.608408	-296.322511	970.052715	409.961285	-409.703052	872.135403	456.483424	-455.269575	774.768246	428.597991	-393.096673	952.772714	89.92175	-319.86867	1166.376023	73.174762	-337.888084	1148.165694	47.083512	-230.563148	676.068788	549.836827	-387.249062	605.402106	358.966445	-342.670367	573.271602	371.609197	-445.15308	1079.334773	1460.877824	-487.433618	1041.090414	1427.507325	-123.694801	1131.680194	1395.853508	-274.88067	1023.448044	1486.009966	-315.724868	993.584728	1352.650224	-81.21821	978.710102	1265.949249	-98.02849399999999	893.19715	1286.459492	-97.194588	835.950662	1190.221047	-82.54915099999999	832.854089	1190.969275	-150.220064	1041.020283	1396.193197	-545.642839	966.803216	1362.414861	-530.276955	1009.694292	1297.384982	-571.878568	918.027487	1227.482435	-614.285557	876.204115	1232.622264	-552.710739	901.210569	1123.440256	-60.703809	1001.136646	968.9298219999999	-79.44276499999999	940.692378	941.531472	-97.227662	990.039975	1186.438886	-594.068058	1119.411447	1108.514973	-471.194556	1089.042387	1053.242849	-499.811032	1155.988261	698.403439	-183.857295	
99	0.9666670000000001	1096.603689	961.219437	-436.393908	1074.922274	973.517397	-201.902876	924.0368109999999	997.1822110000001	-390.86062	912.181638	1002.168896	-288.583292	1042.739297	814.008734	-156.204117	1118.603706	588.245097	-211.578508	1049.393911	783.454704	-497.665955	1127.730241	690.582407	-478.846654	1068.718349	564.435218	-462.581529	1174.05372	367.697938	-288.309785	1109.700478	323.516392	-229.867436	1095.179808	203.864297	-299.634823	986.585766	409.115889	-411.681739	889.244502	456.969011	-456.906429	791.7613270000001	429.73614	-394.191076	928.380683	90.50696499999999	-321.668216	1141.871787	71.755844	-338.803254	1123.048266	47.332102	-231.414088	691.8269299999999	552.0541909999999	-386.799384	622.671051	359.668691	-345.814148	592.988914	373.090251	-449.030699	1075.142242	1454.875268	-487.427253	1042.99008	1420.273467	-122.025193	1132.238431	1389.943905	-275.595183	1022.745875	1480.230994	-314.461461	998.795705	1340.998535	-80.168561	985.369028	1254.855698	-97.340777	899.362567	1272.550563	-91.913099	845.126991	1174.835992	-77.794971	838.883601	1176.388556	-145.054294	1035.400902	1389.946003	-544.711896	961.360131	1355.530206	-527.378569	1003.297202	1291.555101	-570.459622	910.505822	1222.043397	-611.307409	869.560338	1227.284957	-548.4043349999999	913.4490060000001	1109.530752	-59.537193	1014.50156	958.07845	-82.070645	952.993265	929.206731	-97.581277	981.2801940000001	1177.222636	-593.363942	1110.947575	1090.568642	-476.459416	1076.102059	1037.90102	-504.151311	1150.131093	691.991396	-185.302799	
100	0.975	1093.919433	956.22054	-435.843528	1073.196624	968.269002	-201.041208	921.538496	993.4147830000001	-389.725305	910.2524529999999	998.916661	-287.387278	1038.054133	810.045611	-156.887867	1110.429185	583.326161	-212.310571	1050.526411	780.356451	-497.259739	1134.993081	690.128143	-480.332547	1082.278324	562.19499	-465.91684	1159.871761	361.463512	-289.790142	1093.990879	319.207352	-231.503493	1074.156275	200.548006	-301.393596	1004.272686	410.039842	-413.534621	906.957557	457.496341	-458.567842	809.442229	430.035694	-395.449693	903.466899	91.07924	-322.242945	1116.767492	71.098145	-339.165767	1097.7948	47.333935	-231.81868	707.10019	552.513724	-386.209431	641.3036	358.030216	-349.175345	613.4404950000001	372.34964	-452.781079	1071.039251	1449.792783	-487.288613	1045.247566	1414.037597	-120.5592	1132.543506	1385.030606	-276.490085	1022.128675	1475.442348	-313.20299	1004.918797	1330.822539	-79.664124	992.699053	1244.966797	-97.38102600000001	906.709428	1260.403701	-87.05175800000001	855.467008	1160.589173	-73.207201	846.033694	1162.698539	-140.022226	1029.841699	1385.008804	-543.533829	956.088599	1349.505971	-523.879191	996.744879	1287.149843	-569.150235	902.828244	1217.386871	-608.335703	862.8036949999999	1222.573616	-544.27787	927.173408	1097.444931	-59.028017	1029.156105	949.228661	-85.14439900000001	967.073083	918.70445	-98.695797	972.526133	1169.570359	-592.50059	1101.886535	1074.248774	-481.615716	1062.817206	1024.454661	-508.498063	1143.825144	686.224797	-186.552263	
101	0.983333	1091.391574	952.557037	-435.609285	1071.402718	964.62416	-199.957585	919.1617	990.751186	-389.206564	908.524499	996.046065	-287.322922	1032.756055	806.450199	-157.263265	1101.452065	578.717206	-212.192875	1051.349276	778.013052	-496.898104	1142.510006	691.543104	-481.408091	1096.295003	561.891712	-468.796071	1144.195171	355.542174	-290.385328	1077.004269	315.774038	-231.774531	1052.418823	197.707358	-301.514406	1022.948558	412.631761	-415.212803	925.056954	458.128974	-460.113544	827.638012	429.485819	-396.794617	878.376467	91.59371299999999	-322.035113	1091.448521	70.990572	-339.25671	1072.557219	47.135223	-231.762527	721.783942	551.062648	-385.503839	661.133023	354.095004	-352.617792	634.639189	369.291251	-456.379972	1067.166445	1445.790904	-487.072396	1047.926132	1409.136771	-119.302526	1132.669282	1381.14666	-277.549916	1021.526314	1471.714093	-311.997275	1011.366389	1322.897172	-79.566141	1000.449169	1236.877647	-97.995144	914.72061	1250.630802	-83.050341	866.73304	1148.264684	-68.985444	854.269803	1150.6202	-135.390143	1024.450224	1381.476567	-542.26563	951.1889660000001	1344.704385	-519.853862	990.042431	1284.174687	-567.82647	894.930753	1214.126223	-605.358951	856.322128	1218.743783	-540.396734	941.666686	1087.882612	-59.002047	1044.996498	943.038104	-88.592186	983.110932	910.729241	-100.670503	963.9019939999999	1164.213597	-591.410128	1092.19071	1060.343877	-486.408382	1049.454639	1013.480099	-512.846301	1137.100268	680.932302	-187.133908	
